<svg xmlns="http://www.w3.org/2000/svg" xmlns:xlink="http://www.w3.org/1999/xlink" width="59.451" height="59.452" viewBox="0 0 59.451 59.452"><defs><linearGradient id="a" x1="0.5" y1="-0.042" x2="0.5" y2="1.103" gradientUnits="objectBoundingBox"><stop offset="0" stop-color="#fff"/><stop offset="0.251" stop-color="#fafafa"/><stop offset="0.515" stop-color="#eee"/><stop offset="0.784" stop-color="#d9d9d9"/><stop offset="0.997" stop-color="#c3c3c3"/></linearGradient></defs><g transform="translate(-0.45 -0.426)"><ellipse cx="24.194" cy="24.194" rx="24.194" ry="24.194" transform="matrix(0.264, -0.964, 0.964, 0.264, 0.45, 47.097)" fill="url(#a)"/><g transform="translate(18.45 18.426)"><path d="M16.5,23a1.5,1.5,0,0,1-.931-.321L12,20,8.431,22.676a1.5,1.5,0,0,1-2.408-1.424l0-.011,1.514-8.526a1,1,0,1,1,1.969.35L8.216,20.338l2.589-1.94a2.012,2.012,0,0,1,2.4,0l2.584,1.94-1.292-7.273a1,1,0,1,1,1.969-.35l1.515,8.526v.008A1.5,1.5,0,0,1,16.5,23Z" fill="#006635"/><path d="M6-1A7,7,0,1,1-1,6,7.008,7.008,0,0,1,6-1ZM6,11A5,5,0,1,0,1,6,5.006,5.006,0,0,0,6,11Z" transform="translate(6 2)" fill="#006635"/></g></g></svg>