<svg xmlns="http://www.w3.org/2000/svg" xmlns:xlink="http://www.w3.org/1999/xlink" width="58.125" height="58.125" viewBox="0 0 58.125 58.125"><defs><linearGradient id="a" x1="0.5" y1="0.049" x2="0.5" y2="1.002" gradientUnits="objectBoundingBox"><stop offset="0" stop-color="#fff"/><stop offset="0.251" stop-color="#fafafa"/><stop offset="0.515" stop-color="#eee"/><stop offset="0.784" stop-color="#d9d9d9"/><stop offset="0.997" stop-color="#c3c3c3"/></linearGradient></defs><g transform="translate(-264.874 -137.235)"><circle cx="24.194" cy="24.194" r="24.194" transform="translate(264.874 184.356) rotate(-76.856)" fill="url(#a)"/><g transform="translate(281.874 154.235)"><path d="M18,7H10a1,1,0,0,1,0-2h8a1,1,0,0,1,0,2Z" fill="#006635"/><path d="M18,17H12a1,1,0,0,1,0-2h6a1,1,0,0,1,0,2Z" fill="#006635"/><path d="M21,22H5a3,3,0,0,1-3-3V3A1,1,0,0,1,4,3V19a1,1,0,0,0,1,1H21a1,1,0,0,1,0,2Z" fill="#006635"/><path d="M15,12H8a1,1,0,0,1,0-2h7a1,1,0,0,1,0,2Z" fill="#006635"/></g></g></svg>