<svg xmlns="http://www.w3.org/2000/svg" xmlns:xlink="http://www.w3.org/1999/xlink" width="48.389" height="48.389" viewBox="0 0 48.389 48.389"><defs><linearGradient id="a" x1="0.5" y1="0.026" x2="0.5" y2="1.046" gradientUnits="objectBoundingBox"><stop offset="0" stop-color="#fff"/><stop offset="0.251" stop-color="#fafafa"/><stop offset="0.515" stop-color="#eee"/><stop offset="0.784" stop-color="#d9d9d9"/><stop offset="0.997" stop-color="#c3c3c3"/></linearGradient></defs><g transform="translate(-0.27 -0.476)"><circle cx="24.194" cy="24.194" r="24.194" transform="translate(0.27 0.476)" fill="url(#a)"/><g transform="translate(12.27 12.476)"><path d="M15,13H10a1,1,0,0,1,0-2h5a1,1,0,0,1,0,2Z" fill="#006635"/><path d="M15,9H10a1,1,0,0,1,0-2h5a1,1,0,0,1,0,2Z" fill="#006635"/><path d="M19,18a1,1,0,0,1-1-1V5a1,1,0,0,0-1-1H4A1,1,0,0,1,4,2H17a3,3,0,0,1,3,3V17A1,1,0,0,1,19,18Z" fill="#006635"/><path d="M20,22H8a3,3,0,0,1-3-3V9H3A2,2,0,0,1,1,7V5A3,3,0,0,1,7,5V19a1,1,0,0,0,2,0V18a2,2,0,0,1,2-2H21a2,2,0,0,1,2,2v1A3,3,0,0,1,20,22Zm-9.171-2H20a1,1,0,0,0,1-1V18H11v1A2.987,2.987,0,0,1,10.829,20ZM4,4A1,1,0,0,0,3,5V7H5V5A1,1,0,0,0,4,4Z" fill="#006635"/></g></g></svg>