<svg xmlns="http://www.w3.org/2000/svg" xmlns:xlink="http://www.w3.org/1999/xlink" width="48.389" height="48.389" viewBox="0 0 48.389 48.389"><defs><linearGradient id="a" x1="0.5" y1="0.026" x2="0.5" y2="1.046" gradientUnits="objectBoundingBox"><stop offset="0" stop-color="#fff"/><stop offset="0.251" stop-color="#fafafa"/><stop offset="0.515" stop-color="#eee"/><stop offset="0.784" stop-color="#d9d9d9"/><stop offset="0.997" stop-color="#c3c3c3"/></linearGradient></defs><g transform="translate(-289.591 -226.709)"><circle cx="24.194" cy="24.194" r="24.194" transform="translate(289.591 226.709)" fill="url(#a)"/><g transform="translate(302.591 239.709)"><path d="M5,8a1,1,0,0,1-.707-.293l-2-2A1,1,0,0,1,3.707,4.293l2,2A1,1,0,0,1,5,8Z" fill="#006635"/><path d="M9,7A1,1,0,0,1,8,6V3a1,1,0,0,1,2,0V6A1,1,0,0,1,9,7Z" fill="#006635"/><path d="M13,8a1,1,0,0,1-.707-1.707l2-2a1,1,0,0,1,1.414,1.414l-2,2A1,1,0,0,1,13,8Z" fill="#006635"/><path d="M3-1A4,4,0,1,1-1,3,4,4,0,0,1,3-1ZM3,5A2,2,0,1,0,1,3,2,2,0,0,0,3,5Z" transform="translate(6 10)" fill="#006635"/><path d="M20,21H4a3,3,0,0,1-3-3V14a3,3,0,0,1,3-3H6.17a1,1,0,0,1,0,2H4a1,1,0,0,0-1,1v4a1,1,0,0,0,1,1H20a1,1,0,0,0,1-1V14a1,1,0,0,0-1-1H11.83a1,1,0,1,1,0-2H20a3,3,0,0,1,3,3v4A3,3,0,0,1,20,21Z" fill="#006635"/><path d="M18,17H16a1,1,0,0,1,0-2h2a1,1,0,0,1,0,2Z" fill="#006635"/></g></g></svg>