<svg xmlns="http://www.w3.org/2000/svg" xmlns:xlink="http://www.w3.org/1999/xlink" width="48.389" height="48.389" viewBox="0 0 48.389 48.389"><defs><linearGradient id="a" x1="0.5" y1="0.058" x2="0.5" y2="1.029" gradientUnits="objectBoundingBox"><stop offset="0" stop-color="#fff"/><stop offset="0.251" stop-color="#fafafa"/><stop offset="0.515" stop-color="#eee"/><stop offset="0.784" stop-color="#d9d9d9"/><stop offset="0.997" stop-color="#c3c3c3"/></linearGradient></defs><g transform="translate(-183.44 -392.684)"><circle cx="24.194" cy="24.194" r="24.194" transform="translate(183.44 392.683)" fill="url(#a)"/><g transform="translate(196.44 404.684)"><path d="M14.5,20.62a3.112,3.112,0,0,1-2.207-.913l-2-2a1,1,0,0,1,1.414-1.414l2,2a1.121,1.121,0,1,0,1.586-1.586,1,1,0,0,1,1.414-1.414A3.12,3.12,0,0,1,14.5,20.62Z" fill="#006635"/><path d="M18,18.12a3.112,3.112,0,0,1-2.207-.913l-2.5-2.5a1,1,0,0,1,1.414-1.414l2.5,2.5a1.121,1.121,0,0,0,1.586-1.586l-3.88-3.88a2,2,0,0,0-2.826,0l-.88.88A3.121,3.121,0,0,1,6.793,6.793L9.6,3.983a6.784,6.784,0,0,1,8.28-1.021l.469.279,0,0a1,1,0,0,0,.71.125L20.8,3.02A1,1,0,1,1,21.2,4.98l-1.74.35a3,3,0,0,1-2.132-.373l-.467-.278a4.786,4.786,0,0,0-5.842.719L8.207,8.207A1.121,1.121,0,0,0,9.793,9.793l.88-.88a4.006,4.006,0,0,1,5.654,0l3.88,3.88A3.12,3.12,0,0,1,18,18.12Z" fill="#006635"/><path d="M22,15H20a1,1,0,0,1,0-2h.9L20,3.091A1,1,0,1,1,22,2.909l1,11A1,1,0,0,1,22,15Z" fill="#006635"/><path d="M10,22.12a3.112,3.112,0,0,1-2.207-.913l-6.5-6.5a1,1,0,0,1-.289-.8l1-11A1,1,0,1,1,4,3.091L3.038,13.624l6.169,6.169a1.121,1.121,0,0,0,1.586-1.586,1,1,0,0,1,1.414-1.414A3.12,3.12,0,0,1,10,22.12Z" fill="#006635"/><path d="M11,5H3A1,1,0,0,1,3,3h8a1,1,0,0,1,0,2Z" fill="#006635"/></g></g></svg>