<svg xmlns="http://www.w3.org/2000/svg" xmlns:xlink="http://www.w3.org/1999/xlink" width="48.389" height="48.389" viewBox="0 0 48.389 48.389"><defs><linearGradient id="a" x1="0.5" y1="0.058" x2="0.5" y2="1.029" gradientUnits="objectBoundingBox"><stop offset="0" stop-color="#fff"/><stop offset="0.251" stop-color="#fafafa"/><stop offset="0.515" stop-color="#eee"/><stop offset="0.784" stop-color="#d9d9d9"/><stop offset="0.997" stop-color="#c3c3c3"/></linearGradient></defs><g transform="translate(3056.336 5736.959)"><circle cx="24.194" cy="24.194" r="24.194" transform="translate(-3056.336 -5736.959)" fill="url(#a)"/><g transform="translate(-3043.336 -5724.293)"><path d="M7,9.5a1,1,0,0,1,.515.143l5,3A1,1,0,0,1,13,13.5V19a1,1,0,0,1-.486.858l-3.97,2.38a3,3,0,0,1-3.089,0l-3-1.8A3.016,3.016,0,0,1,1,17.872V14.63a3.017,3.017,0,0,1,1.455-2.567l4.03-2.42A1,1,0,0,1,7,9.5Zm4,4.566-4-2.4L3.485,13.777A1,1,0,0,0,3,14.632V17.87a1,1,0,0,0,.485.853l3,1.8a1,1,0,0,0,1.03,0L11,18.434Z" fill="#006635"/><path d="M7,17.5a1,1,0,0,1-.514-.143l-4.74-2.85a1,1,0,1,1,1.031-1.714l4.74,2.85A1,1,0,0,1,7,17.5Z" fill="#006635"/><path d="M7,17.5a1,1,0,0,1-.515-1.858l5-3a1,1,0,0,1,1.029,1.715l-5,3A1,1,0,0,1,7,17.5Z" fill="#006635"/><path d="M7,22.67a1,1,0,0,1-1-1V16.5a1,1,0,1,1,2,0v5.17A1,1,0,0,1,7,22.67Z" fill="#006635"/><path d="M17,9.5a1,1,0,0,1,.515.143l4.03,2.42A3.016,3.016,0,0,1,23,14.628V17.87a3.017,3.017,0,0,1-1.455,2.567l-3,1.8a3,3,0,0,1-3.089,0l-3.969-2.38A1,1,0,0,1,11,19V13.5a1,1,0,0,1,.486-.857l5-3A1,1,0,0,1,17,9.5Zm0,11.166a1,1,0,0,0,.515-.143l3-1.8A1,1,0,0,0,21,17.868V14.63a1,1,0,0,0-.485-.853L17,11.666l-4,2.4v4.367l3.484,2.089A1,1,0,0,0,17,20.666Z" fill="#006635"/><path d="M17,17.5a1,1,0,0,1-.514-.143l-5-3a1,1,0,0,1,1.029-1.715l5,3A1,1,0,0,1,17,17.5Z" fill="#006635"/><path d="M17,17.5a1,1,0,0,1-.516-1.857l4.74-2.85a1,1,0,1,1,1.031,1.714l-4.74,2.85A1,1,0,0,1,17,17.5Z" fill="#006635"/><path d="M17,22.67a1,1,0,0,1-1-1V16.5a1,1,0,1,1,2,0v5.17A1,1,0,0,1,17,22.67Z" fill="#006635"/><path d="M12,1.334a3,3,0,0,1,1.545.428l3,1.8A3.017,3.017,0,0,1,18,6.128V10.5a1,1,0,0,1-.486.857l-5,3a1,1,0,0,1-1.029,0l-5-3A1,1,0,0,1,6,10.5V6.13A3.017,3.017,0,0,1,7.455,3.563l3-1.8A3,3,0,0,1,12,1.334Zm4,8.6V6.13a1,1,0,0,0-.485-.853l-3-1.8a1,1,0,0,0-1.031,0l-3,1.8A1,1,0,0,0,8,6.132v3.8l4,2.4Z" fill="#006635"/><path d="M12,9a1,1,0,0,1-.514-.143l-4.74-2.85A1,1,0,0,1,7.775,4.293l4.74,2.85A1,1,0,0,1,12,9Z" fill="#006635"/><path d="M12,9a1,1,0,0,1-.516-1.857l4.74-2.85a1,1,0,1,1,1.031,1.714l-4.74,2.85A1,1,0,0,1,12,9Z" fill="#006635"/><path d="M12,14.5a1,1,0,0,1-1-1V8a1,1,0,0,1,2,0v5.5A1,1,0,0,1,12,14.5Z" fill="#006635"/></g></g></svg>