<svg xmlns="http://www.w3.org/2000/svg" xmlns:xlink="http://www.w3.org/1999/xlink" width="58.125" height="58.125" viewBox="0 0 58.125 58.125"><defs><linearGradient id="a" x1="0.5" y1="0.049" x2="0.5" y2="1.002" gradientUnits="objectBoundingBox"><stop offset="0" stop-color="#fff"/><stop offset="0.251" stop-color="#fafafa"/><stop offset="0.515" stop-color="#eee"/><stop offset="0.784" stop-color="#d9d9d9"/><stop offset="0.997" stop-color="#c3c3c3"/></linearGradient></defs><g transform="translate(0.248 0.155)"><ellipse cx="24.194" cy="24.194" rx="24.194" ry="24.194" transform="translate(-0.248 46.966) rotate(-76.856)" fill="url(#a)"/><g transform="translate(16.752 16.845)"><path d="M9.741,17a1.011,1.011,0,0,1-.108-.006,1,1,0,0,1-.888-1.1C8.9,14.41,9,12.955,9,12a3,3,0,0,1,3-3,1,1,0,0,1,0,2,1,1,0,0,0-1,1c0,1.037-.1,2.534-.266,4.107A1,1,0,0,1,9.741,17Z" fill="#006635"/><path d="M13,23a1,1,0,0,1-.928-1.372C13,19.307,13,15.434,13,13.12a1,1,0,0,1,2,0c0,2.458,0,6.573-1.072,9.251A1,1,0,0,1,13,23Z" fill="#006635"/><path d="M17.291,22.02a1,1,0,0,1-.982-1.2c.137-.684.424-2.289.485-2.921a1,1,0,0,1,1.991.194c-.078.8-.409,2.592-.515,3.119A1,1,0,0,1,17.291,22.02Z" fill="#006635"/><path d="M2,13a1,1,0,0,1-1-1A11,11,0,0,1,20.8,5.4a1,1,0,1,1-1.6,1.2A9,9,0,0,0,3,12,1,1,0,0,1,2,13Z" fill="#006635"/><path d="M2.01,17H2a1,1,0,0,1,0-2h.01a1,1,0,0,1,0,2Z" fill="#006635"/><path d="M21.8,17q-.05,0-.1-.005a1,1,0,0,1-.9-1.095,35.26,35.26,0,0,0,.015-5.7,1,1,0,1,1,1.96-.4,35.551,35.551,0,0,1,.015,6.3A1,1,0,0,1,21.8,17Z" fill="#006635"/><path d="M5,20.5a1,1,0,0,1-.949-1.316A26.318,26.318,0,0,0,5,12a6.98,6.98,0,0,1,.4-2.332,1,1,0,0,1,1.887.664A4.987,4.987,0,0,0,7,12a28.028,28.028,0,0,1-1.051,7.818A1,1,0,0,1,5,20.5Z" fill="#006635"/><path d="M8.65,23A1,1,0,0,1,7.7,21.7c.041-.129.083-.258.125-.387a11.1,11.1,0,0,0,.413-1.483,1,1,0,0,1,1.97.348,12.763,12.763,0,0,1-.481,1.757c-.041.124-.081.248-.121.372A1,1,0,0,1,8.65,23Z" fill="#006635"/><path d="M18,15a1,1,0,0,1-1-1V12A5,5,0,0,0,9.5,7.666a1,1,0,0,1-1-1.732A7,7,0,0,1,19,12v2A1,1,0,0,1,18,15Z" fill="#006635"/></g></g></svg>